<svg version="1.2" xmlns="http://www.w3.org/2000/svg" viewBox="0 0 120 36" width="120" height="36"><style>.a{fill:#202020}</style><path class="a" d="m174.2 63.2q-0.2-0.2-0.3-0.4-0.2-0.1-0.5-0.2-0.2-0.1-0.4-0.1-0.2-0.1-0.5 0-0.2 0-0.3 0-0.2 0-0.4 0-0.1 0.1-0.3 0.1-0.2 0.1-0.3 0.2-0.2 0.1-0.3 0.2-0.1 0.1-0.3 0.2-0.1 0.1-0.2 0.2-0.1 0.2-0.2 0.3 0 0.2-0.1 0.4-0.1 0.1-0.1 0.3-0.1 0.2-0.1 0.4 0 0.2 0 0.4v9h-4.9v-14.8h4.9v2.2q0.2-0.3 0.3-0.6 0.2-0.2 0.5-0.5 0.2-0.2 0.4-0.4 0.3-0.2 0.6-0.4 0.3-0.2 0.6-0.3 0.4-0.1 0.7-0.2 0.4-0.1 0.7-0.2 0.4 0 0.8 0 0.5 0 1.1 0 0.5 0.1 1 0.3 0.6 0.2 1 0.5 0.5 0.3 0.9 0.7 0.3 0.5 0.6 1 0.2 0.4 0.4 1 0.2 0.5 0.2 1.1 0.1 0.5 0.1 1.1v9.6h-5.1v-9.1q0-0.2 0-0.5-0.1-0.3-0.1-0.5-0.1-0.3-0.2-0.5-0.1-0.3-0.2-0.5z"/><path  d="m21.8 28.1v0.1q0 0.2-0.1 0.4-0.2 0.2-0.4 0.3-0.1 0.2-0.4 0.3-0.2 0.1-0.5 0.1-0.3 0-0.6 0-0.3 0-0.6 0-0.2 0-0.5-0.1-0.2-0.1-0.4-0.3-0.2-0.2-0.3-0.5-0.1-0.2-0.1-0.4-0.1-0.3-0.1-0.5-0.1-0.2-0.2-0.5-0.1-0.6-0.2-1.2-0.1-0.6-0.3-1.2-0.5-0.2-1-0.3-0.5-0.1-1-0.1-1.1 0.1-2.2 0.1-1 0.1-2.1 0.3-1 0.1-1.9 0.4-1 0.2-1.8 0.7-0.3 0.3-0.4 0.6-0.2 0.2-0.3 0.5 0 0.3-0.1 0.6-0.1 0.3-0.1 0.6 0 0.3-0.1 0.5-0.1 0.3-0.4 0.5-0.2 0.2-0.5 0.3-0.3 0.1-0.7 0.1-0.6-0.1-1.1-0.4-0.5-0.4-0.8-0.8-0.3-0.4-0.5-0.9-0.3-0.5-0.3-1 0-0.9 0.4-1.9 0.3-1 0.8-1.9 0.5-1 1.1-2.1 0.5-1.1 1.1-2.1 0.5-1.6 1.1-3.2 0.7-1.6 1.3-3.2 0.3-0.6 0.7-1.4 0.4-0.7 0.9-1.4 0.5-0.7 1.1-1.2 0.7-0.5 1.7-0.7 0.9 0 1.7 0.3 0.8 0.3 1.4 0.7 0.7 0.5 1.2 1.1 0.5 0.6 0.8 1.2 0.3 0.7 0.5 1.4 0.2 0.7 0.4 1.4 0.9 2.7 1.7 5.4 0.9 2.8 1.5 5.6 0.1 0.5 0.3 0.9 0.1 0.5 0.2 0.9 0.1 0.3 0.1 0.5 0.1 0.3 0.1 0.5 0 0.3 0 0.5 0 0.2-0.1 0.5zm-6.7-8.9q-0.1-1-0.4-1.9-0.2-0.9-0.5-1.9-0.3-0.9-0.7-1.8-0.4-0.9-0.7-1.8-1 0.7-1.6 1.7-0.6 0.9-1 1.9-0.3 0.5-0.5 1-0.2 0.5-0.4 1-0.1 0.6-0.2 1.1-0.1 0.5-0.2 1v0.3l0.1 0.2q-0.1 0.1-0.1 0.2 0 0.1-0.1 0.2l0.1 0.2q0.4 0 0.7 0.1 0.4 0 0.7 0 0.4 0 0.8 0 0.4 0 0.8 0 0.4 0.1 1 0 0.5 0 1-0.2 0.5-0.2 0.8-0.5 0.3-0.3 0.4-0.8zm35.4 9.2q-0.1 0.2-0.3 0.4-0.2 0.1-0.5 0.3-0.3 0.1-0.6 0.1-0.3 0.1-0.6 0.1-0.5 0.1-1 0.1-0.5 0-0.9-0.1-0.2-0.1-0.3-0.3-0.2-0.2-0.2-0.3-0.1-0.2-0.2-0.4-0.1-0.2-0.2-0.4-0.2-0.8-0.4-1.7-0.2-0.8-0.3-1.7-0.1-0.9-0.2-1.7-0.1-0.9-0.2-1.7-0.1-0.7-0.1-1.4 0-0.8 0-1.5 0-0.5 0-1 0-0.5 0-1.1 0-0.5-0.1-1-0.1-0.6-0.2-1.1-1.1 1.1-1.9 2.3-0.8 1.1-1.5 2.4-0.7 1.2-1.3 2.5-0.5 1.2-1.1 2.5-0.1 0.5-0.3 1-0.2 0.4-0.4 0.9-0.1 0.2-0.2 0.4-0.1 0.2-0.3 0.4-0.1 0.2-0.3 0.4-0.2 0.2-0.5 0.2-0.6 0.1-1 0-0.5-0.2-1-0.4-0.4-0.2-0.7-0.5-0.3-0.3-0.5-0.7-0.6-1-0.9-2-0.3-1-0.6-2-0.1-0.5-0.2-1-0.2-0.6-0.3-1.1-0.1-0.5-0.3-1-0.2-0.5-0.4-1-0.5 0.5-0.7 1.1-0.1 0.5-0.2 1.2-0.1 0.6-0.1 1.2 0 0.6 0 1.1 0 0.6 0 1.1 0 0.6 0 1.1 0.1 0.4 0.1 0.8 0.1 0.4 0.2 0.8 0.1 0.4 0.2 0.8 0.1 0.4 0 0.8 0.1 0.3 0 0.7 0 0.4-0.3 0.7-0.2 0.3-0.5 0.5-0.4 0.2-0.9 0.1-0.8 0-1.5-0.4-0.6-0.3-1-0.9-0.3-0.6-0.5-1.2-0.2-0.6-0.3-1.2-0.2-1.5-0.3-3.1-0.1-1.6 0-3.2 0-1.5 0.3-2.9 0.2-1.4 0.5-2.8 0.3-0.9 0.6-1.8 0.3-1 0.7-1.8 0.3-0.8 0.9-1.4 0.6-0.7 1.5-1 0.6-0.1 1.1 0.1 0.6 0.1 1 0.4 0.4 0.2 0.7 0.6 0.3 0.3 0.5 0.7 0.2 0.5 0.4 0.9 0.1 0.5 0.3 0.9 0.1 0.5 0.2 1 0.1 0.4 0.3 0.9 0.2 0.6 0.3 1.2 0.2 0.5 0.4 1.1 0.1 0.3 0.3 0.6 0.1 0.3 0.3 0.5 0.2 0.3 0.4 0.5 0.2 0.2 0.6 0.3 1-1.5 2-2.9 1-1.5 2-2.9 0.5-0.6 0.9-1.2 0.5-0.6 1-1.2 0.5-0.6 1.2-1 0.6-0.5 1.5-0.7 0.6 0 1.3 0.2 0.6 0.1 1.1 0.5 0.5 0.3 0.9 0.7 0.4 0.4 0.7 0.9 0.4 1 0.6 2 0.3 1 0.4 2.1 0.1 0.2 0 0.4 0 0.2 0 0.4 0 0.5 0 1 0 0.6-0.1 1.1-0.1 0.5-0.2 1.1 0 0.5-0.1 1 0 0.2 0 0.4 0 0.2 0 0.4 0 0.1 0 0.3 0 0.2 0 0.3 0 0.6 0.1 1.1 0.1 0.5 0.2 1.1 0.1 0.5 0.2 1 0.2 0.5 0.3 1 0.2 1 0.4 2 0.2 1 0.1 2zm22.8-0.3v0.1q-0.1 0.2-0.2 0.4-0.1 0.2-0.3 0.3-0.2 0.2-0.4 0.3-0.3 0.1-0.6 0.1-0.2 0-0.6 0-0.3 0-0.5 0-0.3 0-0.6-0.1-0.2-0.1-0.4-0.3-0.1-0.2-0.2-0.5-0.1-0.2-0.2-0.4-0.1-0.3-0.1-0.5-0.1-0.2-0.1-0.5-0.1-0.6-0.3-1.2-0.1-0.6-0.3-1.2-0.4-0.2-0.9-0.3-0.5-0.1-1.1-0.1-1.1 0.1-2.1 0.1-1.1 0.1-2.2 0.3-0.9 0.1-1.9 0.4-0.9 0.2-1.8 0.7-0.2 0.3-0.4 0.6-0.1 0.2-0.2 0.5-0.1 0.3-0.2 0.6 0 0.3-0.1 0.6 0 0.3-0.1 0.5-0.1 0.3-0.3 0.5-0.2 0.2-0.5 0.3-0.4 0.1-0.7 0.1-0.7-0.1-1.2-0.4-0.4-0.4-0.7-0.8-0.4-0.4-0.6-0.9-0.2-0.5-0.2-1 0-0.9 0.3-1.9 0.4-1 0.8-1.9 0.6-1 1.1-2.1 0.5-1.1 1.1-2.1 0.6-1.6 1.2-3.2 0.6-1.6 1.2-3.2 0.4-0.6 0.8-1.4 0.3-0.7 0.8-1.4 0.5-0.7 1.2-1.2 0.6-0.5 1.6-0.7 0.9 0 1.7 0.3 0.8 0.3 1.5 0.7 0.6 0.5 1.1 1.1 0.5 0.6 0.8 1.2 0.4 0.7 0.6 1.4 0.1 0.7 0.4 1.4 0.9 2.7 1.7 5.4 0.8 2.8 1.4 5.6 0.2 0.5 0.3 0.9 0.1 0.5 0.3 0.9 0 0.3 0.1 0.5 0 0.3 0 0.5 0 0.3 0 0.5 0 0.2 0 0.5zm-6.8-8.9q-0.1-1-0.3-1.9-0.2-0.9-0.6-1.9-0.3-0.9-0.7-1.8-0.3-0.9-0.7-1.8-0.9 0.7-1.5 1.7-0.6 0.9-1.1 1.9-0.2 0.5-0.5 1-0.2 0.5-0.3 1-0.2 0.6-0.3 1.1-0.1 0.5-0.1 1v0.3 0.2q0 0.1 0 0.2 0 0.1-0.1 0.2l0.1 0.2q0.3 0 0.7 0.1 0.3 0 0.7 0 0.4 0 0.7 0 0.4 0 0.8 0 0.5 0.1 1 0 0.6 0 1-0.2 0.5-0.2 0.8-0.5 0.4-0.3 0.4-0.8zm28.1 6.4l-0.1 0.4q-0.1 0.5-0.2 1-0.2 0.4-0.5 0.9-0.3 0.4-0.7 0.8-0.5 0.4-1.1 0.5-1.1-0.1-2-0.5-0.8-0.5-1.5-1.1-0.7-0.7-1.2-1.4-0.6-0.8-1.1-1.5-1.2-1.7-2.3-3.4-1.1-1.8-2.2-3.5-0.4 0.3-0.7 0.7-0.2 0.4-0.3 0.8-0.1 0.5-0.2 0.9 0 0.5-0.1 0.9 0 0.7 0 1.4 0.1 0.7 0.1 1.5 0 0.7 0 1.4 0.1 0.7 0.1 1.4-0.1 0.3-0.1 0.8 0 0.4-0.1 0.8-0.1 0.4-0.3 0.7-0.3 0.3-0.9 0.3-0.4 0-0.8-0.1-0.5-0.2-0.7-0.4-0.3-0.3-0.5-0.7-0.2-0.3-0.3-0.6-0.3-0.8-0.5-1.6-0.1-0.8-0.2-1.6-0.1-0.9-0.1-1.7-0.1-0.8-0.1-1.6 0.1-0.6 0.1-1.2 0-0.5 0.1-1.1 0.1-1.4 0.3-2.6 0.2-1.3 0.4-2.6 0.3-0.9 0.5-1.8 0.2-0.8 0.4-1.6 0.3-0.8 0.7-1.5 0.4-0.6 1.1-1.1 0.8 0 1.3 0.2 0.6 0.3 1 0.7 0.5 0.4 0.8 0.9 0.4 0.5 0.7 0.9 0.9 1.6 1.7 3.2 0.9 1.6 1.7 3.3 0.4 0.6 0.7 1.3 0.4 0.7 0.8 1.3 0.4 0.6 0.8 1.3 0.5 0.6 1.1 1.1 0.2-0.5 0.3-1.1 0.1-0.6 0.2-1.2 0-2.2-0.2-4.3-0.1-1.1-0.2-2.1 0-1 0-2.1 0-0.3 0-0.6 0.1-0.4 0.1-0.7 0.1-0.4 0.2-0.7 0.1-0.4 0.3-0.6 0.2-0.3 0.6-0.5 0.3-0.1 0.8-0.1 0.8 0.1 1.4 0.5 0.5 0.3 0.8 0.9 0.3 0.5 0.5 1.1 0.1 0.6 0.1 1.2 0 0.8 0 1.6 0 0.8 0 1.6l-0.1 3.4q-0.1 1.9-0.2 3.7-0.1 1.9-0.2 3.8zm22.5 2.5v0.1q0 0.2-0.1 0.4-0.2 0.2-0.3 0.3-0.2 0.2-0.5 0.3-0.2 0.1-0.5 0.1-0.3 0-0.6 0-0.3 0-0.6 0-0.2 0-0.5-0.1-0.2-0.1-0.4-0.3-0.2-0.2-0.3-0.5-0.1-0.2-0.1-0.4-0.1-0.3-0.1-0.5-0.1-0.2-0.2-0.5-0.1-0.6-0.2-1.2-0.1-0.6-0.3-1.2-0.5-0.2-1-0.3-0.5-0.1-1-0.1-1.1 0.1-2.2 0.1-1 0.1-2.1 0.3-1 0.1-1.9 0.4-1 0.2-1.8 0.7-0.3 0.3-0.4 0.6-0.2 0.2-0.2 0.5-0.1 0.3-0.2 0.6-0.1 0.3-0.1 0.6 0 0.3-0.1 0.5-0.1 0.3-0.4 0.5-0.2 0.2-0.5 0.3-0.3 0.1-0.6 0.1-0.7-0.1-1.2-0.4-0.5-0.4-0.8-0.8-0.3-0.4-0.5-0.9-0.3-0.5-0.3-1 0-0.9 0.4-1.9 0.3-1 0.8-1.9 0.5-1 1.1-2.1 0.5-1.1 1.1-2.1 0.5-1.6 1.1-3.2 0.7-1.6 1.3-3.2 0.4-0.6 0.7-1.4 0.4-0.7 0.9-1.4 0.5-0.7 1.1-1.2 0.7-0.5 1.7-0.7 0.9 0 1.7 0.3 0.8 0.3 1.4 0.7 0.7 0.5 1.2 1.1 0.5 0.6 0.8 1.2 0.3 0.7 0.5 1.4 0.2 0.7 0.4 1.4 0.9 2.7 1.7 5.4 0.9 2.8 1.5 5.6 0.2 0.5 0.3 0.9 0.1 0.5 0.2 0.9 0.1 0.3 0.1 0.5 0.1 0.3 0.1 0.5 0 0.3 0 0.5 0 0.2-0.1 0.5zm-6.7-8.9q-0.1-1-0.3-1.9-0.3-0.9-0.6-1.9-0.3-0.9-0.7-1.8-0.4-0.9-0.7-1.8-1 0.7-1.6 1.7-0.6 0.9-1 1.9-0.3 0.5-0.5 1-0.2 0.5-0.4 1-0.1 0.6-0.2 1.1-0.1 0.5-0.2 1v0.3l0.1 0.2q-0.1 0.1-0.1 0.2 0 0.1-0.1 0.2l0.1 0.2q0.4 0 0.7 0.1 0.4 0 0.7 0 0.4 0 0.8 0 0.4 0 0.8 0 0.4 0.1 1 0 0.5 0 1-0.2 0.5-0.2 0.8-0.5 0.3-0.3 0.4-0.8z"/></svg>